<?xml version="1.0" encoding="utf-8"?>
<!-- Generator: Adobe Illustrator 14.0.0, SVG Export Plug-In . SVG Version: 6.00 Build 43363)  -->
<!DOCTYPE svg PUBLIC "-//W3C//DTD SVG 1.1 Basic//EN" "http://www.w3.org/Graphics/SVG/1.1/DTD/svg11-basic.dtd">
<svg version="1.1" baseProfile="basic" xmlns="http://www.w3.org/2000/svg" xmlns:xlink="http://www.w3.org/1999/xlink" x="0px"
	 y="0px" width="800px" height="800px" viewBox="0 0 800 800" xml:space="preserve">
<g id="background" display="none">
	<rect y="-0.178" display="inline" fill="#45B549" width="800" height="800.178"/>
</g>
<g id="cube">
	<g>
		<path fill="#45B549" d="M408.66,684.628c-4.763,2.75-12.557,2.75-17.32,0L157.757,549.769c-4.763-2.75-8.66-9.5-8.66-15V265.052
			c0-5.5,3.897-12.25,8.66-15L391.34,115.193c4.763-2.75,12.558-2.75,17.32,0l233.583,134.859c4.763,2.75,8.66,9.5,8.66,15v269.716
			c0,5.5-3.897,12.25-8.66,15L408.66,684.628z"/>
		<path fill="none" stroke="#231F20" stroke-width="3" d="M408.66,684.628c-4.763,2.75-12.557,2.75-17.32,0L157.757,549.769
			c-4.763-2.75-8.66-9.5-8.66-15V265.052c0-5.5,3.897-12.25,8.66-15L391.34,115.193c4.763-2.75,12.558-2.75,17.32,0l233.583,134.859
			c4.763,2.75,8.66,9.5,8.66,15v269.716c0,5.5-3.897,12.25-8.66,15L408.66,684.628z"/>
	</g>
</g>
<g id="cube_interior">
	<g>
		<path fill="none" stroke="#FBB116" stroke-width="16" d="M184.538,384.988C241.286,332.136,272,389.014,277,395.268
			c5.556,7.324,40.804,60.731,96.483,10.727"/>
		<path fill="none" stroke="#FBB116" stroke-width="16" d="M184.538,438.936C241.286,386.202,272,443.142,277,449.403
			c5.556,7.336,40.804,60.817,96.483,10.923"/>
		<path fill="none" stroke="#FBB116" stroke-width="16" d="M184.538,492.886C241.286,440.268,272,497.27,277,503.542
			c5.556,7.347,40.804,60.9,96.483,11.12"/>
	</g>
	<g>
		<path fill="#EC1C24" d="M408.66,298.43c-4.763,2.75-12.557,2.75-17.32,0l-49.955-28.842c-4.763-2.75-8.66-9.5-8.66-15
			l0.001-57.683c0-5.5,3.897-12.25,8.66-15l49.953-28.841c4.763-2.75,12.558-2.75,17.32,0l49.955,28.841
			c4.763,2.75,8.66,9.5,8.66,15v57.683c0,5.5-3.897,12.25-8.66,15L408.66,298.43z"/>
		<path fill="none" stroke="#231F20" stroke-width="3" d="M408.66,298.43c-4.763,2.75-12.557,2.75-17.32,0l-49.955-28.842
			c-4.763-2.75-8.66-9.5-8.66-15l0.001-57.683c0-5.5,3.897-12.25,8.66-15l49.953-28.841c4.763-2.75,12.558-2.75,17.32,0
			l49.955,28.841c4.763,2.75,8.66,9.5,8.66,15v57.683c0,5.5-3.897,12.25-8.66,15L408.66,298.43z"/>
	</g>
	<g>
		<path fill="#2A429A" d="M567.834,412.976c0.009,1.56-1.084,3.479-2.43,4.267l-31.472,18.417c-1.346,0.787-3.555,0.801-4.909,0.028
			l-31.688-18.047c-1.354-0.772-2.471-2.679-2.479-4.238l-0.213-36.463c-0.009-1.559,1.084-3.479,2.43-4.266l31.474-18.417
			c1.346-0.788,3.555-0.8,4.909-0.029l31.686,18.047c1.354,0.771,2.471,2.678,2.479,4.237L567.834,412.976z"/>
		<path fill="none" stroke="#231F20" stroke-width="3" stroke-linejoin="round" d="M567.834,412.976
			c0.009,1.56-1.084,3.479-2.43,4.267l-31.472,18.417c-1.346,0.787-3.555,0.801-4.909,0.028l-31.688-18.047
			c-1.354-0.772-2.471-2.679-2.479-4.238l-0.213-36.463c-0.009-1.559,1.084-3.479,2.43-4.266l31.474-18.417
			c1.346-0.788,3.555-0.8,4.909-0.029l31.686,18.047c1.354,0.771,2.471,2.678,2.479,4.237L567.834,412.976z"/>
	</g>
	<g>
		<path fill="#2A429A" d="M606.512,475.619c0.009,1.56-1.084,3.479-2.43,4.267l-24.354,14.251c-1.346,0.787-3.555,0.801-4.909,0.028
			l-24.52-13.964c-1.354-0.772-2.471-2.679-2.479-4.238l-0.164-28.216c-0.009-1.56,1.084-3.479,2.43-4.267l24.354-14.252
			c1.346-0.787,3.555-0.801,4.909-0.028l24.52,13.965c1.354,0.772,2.471,2.679,2.479,4.238L606.512,475.619z"/>
		<path fill="none" stroke="#231F20" stroke-width="3" stroke-linejoin="round" d="M606.512,475.619
			c0.009,1.56-1.084,3.479-2.43,4.267l-24.354,14.251c-1.346,0.787-3.555,0.801-4.909,0.028l-24.52-13.964
			c-1.354-0.772-2.471-2.679-2.479-4.238l-0.164-28.216c-0.009-1.56,1.084-3.479,2.43-4.267l24.354-14.252
			c1.346-0.787,3.555-0.801,4.909-0.028l24.52,13.965c1.354,0.772,2.471,2.679,2.479,4.238L606.512,475.619z"/>
	</g>
	<g>
		<path fill="#2A429A" d="M533.339,502.539c0.009,1.56-1.084,3.479-2.43,4.267l-27.925,16.341c-1.346,0.787-3.555,0.801-4.909,0.028
			l-28.115-16.012c-1.354-0.772-2.471-2.679-2.479-4.238l-0.188-32.353c-0.009-1.56,1.084-3.479,2.43-4.267l27.924-16.341
			c1.346-0.787,3.555-0.801,4.909-0.028l28.115,16.013c1.354,0.772,2.471,2.679,2.479,4.238L533.339,502.539z"/>
		<path fill="none" stroke="#231F20" stroke-width="3" stroke-linejoin="round" d="M533.339,502.539
			c0.009,1.56-1.084,3.479-2.43,4.267l-27.925,16.341c-1.346,0.787-3.555,0.801-4.909,0.028l-28.115-16.012
			c-1.354-0.772-2.471-2.679-2.479-4.238l-0.188-32.353c-0.009-1.56,1.084-3.479,2.43-4.267l27.924-16.341
			c1.346-0.787,3.555-0.801,4.909-0.028l28.115,16.013c1.354,0.772,2.471,2.679,2.479,4.238L533.339,502.539z"/>
	</g>
	<g>
		<path fill="#2A429A" d="M573.808,565.862c0.009,1.56-1.084,3.479-2.43,4.267l-22.492,13.16c-1.346,0.787-3.555,0.801-4.909,0.028
			l-22.646-12.896c-1.354-0.772-2.471-2.679-2.479-4.238l-0.15-26.059c-0.009-1.56,1.084-3.479,2.43-4.267l22.491-13.16
			c1.346-0.787,3.555-0.801,4.909-0.028l22.645,12.896c1.354,0.772,2.471,2.679,2.479,4.238L573.808,565.862z"/>
		<path fill="none" stroke="#231F20" stroke-width="3" stroke-linejoin="round" d="M573.808,565.862
			c0.009,1.56-1.084,3.479-2.43,4.267l-22.492,13.16c-1.346,0.787-3.555,0.801-4.909,0.028l-22.646-12.896
			c-1.354-0.772-2.471-2.679-2.479-4.238l-0.15-26.059c-0.009-1.56,1.084-3.479,2.43-4.267l22.491-13.16
			c1.346-0.787,3.555-0.801,4.909-0.028l22.645,12.896c1.354,0.772,2.471,2.679,2.479,4.238L573.808,565.862z"/>
	</g>
</g>
</svg>
